<svg viewBox="0 0 800 200" xmlns="http://www.w3.org/2000/svg">
  <g opacity="0.55">
    <g transform="translate(60 50)">
      <path d="M0 0 C 6 -22, 18 -30, 26 -34" stroke="#BAD797" stroke-width="2.5" fill="none"/>
      <circle cx="-6" cy="10" r="11" fill="#670626"/>
      <circle cx="10" cy="14" r="11" fill="#670626"/>
      <ellipse cx="-9" cy="6" rx="3" ry="1.6" fill="#ffffff" opacity="0.35" transform="rotate(-30 -9 6)"/>
    </g>
    <g transform="translate(220 110) scale(0.85)">
      <path d="M0 0 C 6 -22, 18 -30, 26 -34" stroke="#BAD797" stroke-width="2.5" fill="none"/>
      <circle cx="-6" cy="10" r="11" fill="#670626"/>
      <circle cx="10" cy="14" r="11" fill="#670626"/>
      <ellipse cx="-9" cy="6" rx="3" ry="1.6" fill="#ffffff" opacity="0.35" transform="rotate(-30 -9 6)"/>
    </g>
    <g transform="translate(380 40) scale(1.1)">
      <path d="M0 0 C 6 -22, 18 -30, 26 -34" stroke="#BAD797" stroke-width="2.5" fill="none"/>
      <circle cx="-6" cy="10" r="11" fill="#670626"/>
      <circle cx="10" cy="14" r="11" fill="#670626"/>
      <ellipse cx="-9" cy="6" rx="3" ry="1.6" fill="#ffffff" opacity="0.35" transform="rotate(-30 -9 6)"/>
    </g>
    <g transform="translate(540 100) scale(0.9)">
      <path d="M0 0 C 6 -22, 18 -30, 26 -34" stroke="#BAD797" stroke-width="2.5" fill="none"/>
      <circle cx="-6" cy="10" r="11" fill="#670626"/>
      <circle cx="10" cy="14" r="11" fill="#670626"/>
      <ellipse cx="-9" cy="6" rx="3" ry="1.6" fill="#ffffff" opacity="0.35" transform="rotate(-30 -9 6)"/>
    </g>
    <g transform="translate(700 50) scale(1)">
      <path d="M0 0 C 6 -22, 18 -30, 26 -34" stroke="#BAD797" stroke-width="2.5" fill="none"/>
      <circle cx="-6" cy="10" r="11" fill="#670626"/>
      <circle cx="10" cy="14" r="11" fill="#670626"/>
      <ellipse cx="-9" cy="6" rx="3" ry="1.6" fill="#ffffff" opacity="0.35" transform="rotate(-30 -9 6)"/>
    </g>
    <rect x="140" y="150" width="16" height="16" rx="2" fill="#BAD797" opacity="0.4" transform="rotate(8 148 158)"/>
    <rect x="460" y="20" width="14" height="14" rx="2" fill="#BAD797" opacity="0.4" transform="rotate(-10 467 27)"/>
    <rect x="620" y="140" width="15" height="15" rx="2" fill="#BAD797" opacity="0.4" transform="rotate(12 627 147)"/>
  </g>
</svg>
